<svg width="153" height="152" viewBox="0 0 153 152" fill="none" xmlns="http://www.w3.org/2000/svg">
<path d="M90.826 22.7998C84.0746 16.0358 80.6926 12.6665 76.5 12.6665C72.3073 12.6665 68.9253 16.0422 62.174 22.7998C58.1206 26.8532 54.1053 28.7278 48.3293 28.7278C43.288 28.7278 36.106 27.7525 32.1666 31.7235C28.2526 35.6692 29.228 42.8195 29.228 47.8292C29.228 53.6052 27.347 57.6205 23.2936 61.6738C16.5423 68.4252 13.1666 71.8072 13.1666 75.9998C13.1666 80.1925 16.5423 83.5745 23.3 90.3258C27.8346 94.8668 29.228 97.7992 29.228 104.171C29.228 109.212 28.2526 116.394 32.2236 120.333C36.1693 124.241 43.3196 123.272 48.3293 123.272C54.479 123.272 57.4493 124.475 61.8383 128.864C65.575 132.601 70.5846 139.333 76.5 139.333C82.4153 139.333 87.425 132.601 91.1616 128.864C95.557 124.475 98.521 123.272 104.671 123.272C109.68 123.272 116.831 124.247 120.776 120.333M120.776 120.333C124.747 116.394 123.772 109.212 123.772 104.171C123.772 97.7992 125.165 94.8668 129.7 90.3258C136.458 83.5745 139.833 80.1925 139.833 75.9998C139.833 71.8072 136.458 68.4252 129.706 61.6738M120.776 120.333H120.833" stroke="#59285F" stroke-width="9.5" stroke-linecap="round" stroke-linejoin="round"/>
<path d="M51.1667 65.2838C51.1667 65.2838 65.4167 63.3332 76.5 88.6665C76.5 88.6665 108.54 25.3332 139.833 12.6665" stroke="#59285F" stroke-width="9.5" stroke-linecap="round" stroke-linejoin="round"/>
</svg>
