<svg width="33" height="32" viewBox="0 0 33 32" fill="none" xmlns="http://www.w3.org/2000/svg">
<path d="M16.9165 2.6665H17.2805C21.6272 2.6665 23.8032 2.6665 25.3125 3.7305C25.7445 4.0345 26.1285 4.39717 26.4525 4.80384C27.5832 6.22517 27.5832 8.2705 27.5832 12.3638V15.7572C27.5832 19.7078 27.5832 21.6838 26.9578 23.2612C25.9525 25.7985 23.8272 27.7985 21.1312 28.7452C19.4552 29.3332 17.3578 29.3332 13.1578 29.3332C10.7605 29.3332 9.5605 29.3332 8.60317 28.9972C7.06317 28.4558 5.8485 27.3132 5.27384 25.8638C4.9165 24.9625 4.9165 23.8332 4.9165 21.5758V15.9998" stroke="#59285F" stroke-width="2" stroke-linecap="round" stroke-linejoin="round"/>
<path d="M27.5833 15.9998C27.5833 17.1785 27.1151 18.3088 26.2817 19.1422C25.4483 19.9756 24.318 20.4438 23.1393 20.4438C22.2513 20.4438 21.2047 20.2892 20.342 20.5198C19.9652 20.6212 19.6217 20.8197 19.3458 21.0956C19.0699 21.3715 18.8713 21.7151 18.77 22.0918C18.5393 22.9545 18.694 24.0012 18.694 24.8892C18.694 25.4728 18.5791 26.0506 18.3557 26.5898C18.1324 27.129 17.805 27.6189 17.3924 28.0316C16.9797 28.4442 16.4898 28.7716 15.9506 28.9949C15.4115 29.2182 14.8336 29.3332 14.25 29.3332M6.25 5.99984C6.906 5.32517 8.65 2.6665 9.58333 2.6665M9.58333 2.6665C10.5167 2.6665 12.2607 5.32517 12.9167 5.99984M9.58333 2.6665V13.3332" stroke="#59285F" stroke-width="2" stroke-linecap="round" stroke-linejoin="round"/>
</svg>
