<svg width="24" height="24" viewBox="0 0 24 24" fill="none" xmlns="http://www.w3.org/2000/svg">
<path fill-rule="evenodd" clip-rule="evenodd" d="M10.75 5.75C10.75 5.41848 10.8817 5.10054 11.1161 4.86612C11.3505 4.6317 11.6685 4.5 12 4.5C12.3315 4.5 12.6495 4.6317 12.8839 4.86612C13.1183 5.10054 13.25 5.41848 13.25 5.75C13.25 6.08152 13.1183 6.39946 12.8839 6.63388C12.6495 6.8683 12.3315 7 12 7C11.6685 7 11.3505 6.8683 11.1161 6.63388C10.8817 6.39946 10.75 6.08152 10.75 5.75ZM12.75 8.4C13.67 8.14 14.39 7.42 14.65 6.5H20C20.41 6.5 20.75 6.16 20.75 5.75C20.75 5.34 20.41 5 20 5H14.65C14.32 3.85 13.26 3 12 3C10.74 3 9.68 3.85 9.35 5H4C3.59 5 3.25 5.34 3.25 5.75C3.25 6.16 3.59 6.5 4 6.5H9.35C9.61 7.42 10.33 8.14 11.25 8.4V21H7C6.59 21 6.25 21.34 6.25 21.75C6.25 22.16 6.59 22.5 7 22.5H17C17.41 22.5 17.75 22.16 17.75 21.75C17.75 21.34 17.41 21 17 21H12.75V8.4ZM17.81 8.46C17.8659 8.32319 17.9615 8.20625 18.0845 8.12427C18.2075 8.04228 18.3522 7.999 18.5 8H19.5C19.8 8 20.08 8.18 20.19 8.46L22.69 14.46C22.73 14.55 22.75 14.65 22.75 14.75C22.75 16.82 21.07 18.5 19 18.5C16.93 18.5 15.25 16.82 15.25 14.75C15.25 14.65 15.27 14.55 15.31 14.46L17.81 8.46ZM19 9.5L17.12 14H20.88L19 9.5ZM16.88 15.5C17.19 16.37 18.02 17 19 17C19.98 17 20.81 16.37 21.12 15.5H16.88ZM4.5 8C4.2 8 3.92 8.18 3.81 8.46L1.31 14.46C1.27 14.55 1.25 14.65 1.25 14.75C1.25 16.82 2.93 18.5 5 18.5C7.07 18.5 8.75 16.82 8.75 14.75C8.75 14.65 8.73 14.55 8.69 14.46L6.19 8.46C6.13408 8.32319 6.03847 8.20625 5.91549 8.12427C5.79251 8.04228 5.6478 7.999 5.5 8H4.5ZM3.13 14L5 9.5L6.88 14H3.13ZM5 17C4.02 17 3.19 16.37 2.88 15.5H7.12C6.81 16.37 5.98 17 5 17Z" fill="#59285F"/>
</svg>
