<svg width="24" height="24" viewBox="0 0 24 24" fill="none" xmlns="http://www.w3.org/2000/svg">
<path d="M18 2V4M6 2V4M17.777 13.65L18.569 15.247C18.6363 15.3668 18.7281 15.4711 18.8384 15.5531C18.9486 15.6351 19.0749 15.693 19.209 15.723L20.644 15.963C21.562 16.118 21.778 16.789 21.116 17.452L20 18.577C19.9024 18.6876 19.8307 18.8186 19.7902 18.9605C19.7497 19.1024 19.7414 19.2515 19.766 19.397L20.086 20.791C20.338 21.893 19.757 22.32 18.79 21.743L17.445 20.94C17.201 20.795 16.801 20.795 16.554 20.94L15.208 21.743C14.245 22.32 13.66 21.889 13.912 20.791L14.232 19.398C14.2567 19.2524 14.2485 19.103 14.208 18.961C14.1676 18.8189 14.0958 18.6877 13.998 18.577L12.882 17.452C12.225 16.789 12.437 16.118 13.354 15.964L14.79 15.724C14.9231 15.6931 15.0482 15.6347 15.1574 15.5525C15.2666 15.4704 15.3574 15.3663 15.424 15.247L16.216 13.65C16.648 12.783 17.35 12.783 17.777 13.65Z" stroke="#59285F" stroke-width="1.5" stroke-linecap="round" stroke-linejoin="round"/>
<path d="M21.5 11.5C21.496 7.634 21.427 5.628 20.248 4.354C18.996 3 16.98 3 12.95 3H11.05C7.02 3 5.004 3 3.752 4.354C2.5 5.707 2.5 7.886 2.5 12.244V12.757C2.5 17.114 2.5 19.293 3.752 20.647C4.946 21.937 6.833 21.997 10.5 22M3 8H21" stroke="#59285F" stroke-width="1.5" stroke-linecap="round" stroke-linejoin="round"/>
</svg>
